<?xml version="1.0" standalone="no"?>
<!DOCTYPE svg PUBLIC "-//W3C//DTD SVG 1.0//EN" "http://www.w3.org/TR/2001/REC-SVG-20010904/DTD/svg10.dtd">
<svg xmlns="http://www.w3.org/2000/svg" xmlns:xlink="http://www.w3.org/1999/xlink" id="body_1" width="20" height="15">

<g transform="matrix(0.029296761 0 0 0.029296761 2.4999995 -0)">
    <path d="M411.992 208.486C 406.351 198.314 395.633 192.00099 384 192.00099L384 192.00099L306.781 192.00099L319.89 34.65799C 321.101 20.110989 312.32 6.595989 298.53802 1.7829895C 284.77203 -3.0140104 269.46802 2.1109896 261.37402 14.251989L261.37402 14.251989L101.37402 254.25198C 94.82703 264.072 94.218025 276.697 99.788025 287.103C 105.35103 297.509 116.19402 304.001 127.99902 304.001L127.99902 304.001L205.44403 304.001L192.09203 477.548C 190.95903 492.236 200.00603 505.798 214.00603 510.4C 217.29503 511.486 220.67003 512.002 223.99803 512.002C 234.79503 512.002 245.16203 506.51 251.13103 496.963L251.13103 496.963L411.13104 240.96301C 417.30505 231.09502 417.62503 218.66501 411.99203 208.48601L411.99203 208.48601L411.992 208.486z" stroke="none" fill="#FFFFFF" fill-rule="nonzero" />
</g>
</svg>