<?xml version="1.0" standalone="no"?>
<!DOCTYPE svg PUBLIC "-//W3C//DTD SVG 1.0//EN" "http://www.w3.org/TR/2001/REC-SVG-20010904/DTD/svg10.dtd">
<svg xmlns="http://www.w3.org/2000/svg" xmlns:xlink="http://www.w3.org/1999/xlink" id="body_1" width="20" height="15">

<g transform="matrix(1.3333334 0 0 1.3636364 0 0)">
	<g transform="matrix(0.021484375 0 0 0.021484375 3.375 -0)">
        <path d="M272 384C 281.6 352.1 301.5 324.9 321.2 297.8C 326.40002 290.69998 331.6 283.59998 336.6 276.4C 356.4 247.9 368 213.4 368 176.09999C 368 78.8 289.2 0 192 0C 94.79999 0 16 78.8 16 176C 16 213.3 27.6 247.9 47.4 276.3C 52.4 283.5 57.600002 290.59998 62.800003 297.69998C 82.600006 324.8 102.5 352.09998 112 383.89996L112 383.89996L272 383.89996L272 384zM192 512C 236.2 512 272 476.2 272 432L272 432L272 416L112 416L112 432C 112 476.2 147.8 512 192 512zM112 176C 112 184.8 104.8 192 96 192C 87.2 192 80 184.8 80 176C 80 114.1 130.1 64 192 64C 200.8 64 208 71.2 208 80C 208 88.8 200.8 96 192 96C 147.8 96 112 131.8 112 176z" stroke="none" fill="#FFFFFF" fill-rule="nonzero" />
	</g>
</g>
</svg>